%
M48
M72
T01C0.01378
T02C0.02362
T03C0.03937
T04C0.12598
%
T01
X105631Y50513
X107736Y52902
X112127Y55828
X117665Y54503
X115276Y47954
X118341Y46524
X110158Y47954
X55040Y67639
X37324Y57796
X117665Y93820
X124135Y91261
X91851Y130631
X73741Y133387
X73544Y163308
X89292Y163111
X29646Y153269
X15080Y156418
X190276Y55291
X192665Y57822
X222363Y65670
X229646Y60355
X230631Y55433
X233383Y53691
X233583Y50513
X231478Y48124
X229089Y46018
X222363Y42048
X222363Y32206
X238111Y28269
X253859Y30237
X253072Y33977
X255828Y42048
X253269Y44607
X253269Y58387
X253859Y63702
X252678Y68820
X253859Y73544
X253072Y78465
X253859Y83387
X253269Y88702
X253269Y94089
X244017Y101103
X237324Y107402
X231418Y107402
X242048Y116851
X237520Y125906
X230237Y126694
X236622Y132953
X239626Y136706
X237520Y139095
X235552Y141689
X238730Y142273
X239489Y145451
X237520Y148067
X234298Y148223
X239095Y155040
X238702Y166457
X233305Y170313
X235552Y172560
X227284Y170788
X221969Y161143
X221576Y148544
X205040Y161143
X201757Y164355
X221379Y196576
X221576Y206418
X238505Y196182
X238898Y207402
X268820Y219410
X273576Y223320
X276754Y223320
X278859Y225709
X294410Y209765
X254817Y174528
X254817Y164686
X253269Y160749
X253585Y149284
X253269Y131906
X253269Y128728
X268181Y118278
X270428Y116031
X272675Y113783
X274922Y111536
X264883Y115867
X253269Y103662
X235552Y93820
X233447Y91431
X235552Y89042
X235702Y82429
X233583Y80013
X238308Y75709
X238898Y65473
X233690Y56869
X222363Y77481
X218256Y82626
X215867Y80040
X226300Y85355
X218256Y91431
X230237Y97166
X222363Y120788
X294410Y121772
X294410Y102087
X294410Y35158
X253859Y20394
X253859Y12520
X238111Y12520
T02
X307560Y107442
X312560Y107442
X312560Y112442
X307560Y112442
X307560Y117442
X312560Y117442
X312560Y122442
X307560Y122442
X307560Y127442
X312560Y127442
T03
X286300Y16300
X286300Y26300
X286300Y36300
X286300Y46300
X286300Y56300
X286300Y66300
X286300Y76300
X286300Y86300
X286300Y96300
X286300Y106300
X286300Y126300
X286300Y136300
X286300Y146300
X286300Y156300
X286300Y166300
X286300Y176300
X286300Y186300
X286300Y196300
X286300Y206300
X286300Y216300
X26300Y106300
X36300Y106300
X46300Y106300
X56300Y106300
X66300Y106300
X100190Y109300
X110190Y109300
X110190Y119300
X100190Y119300
X100190Y129300
X110190Y129300
X110190Y139300
X100190Y139300
X100190Y149300
X110190Y149300
X110190Y159300
X100190Y159300
X100190Y169300
X110190Y169300
X110190Y179300
X100190Y179300
X100190Y189300
X110190Y189300
X110190Y199300
X100190Y199300
X66300Y166300
X56300Y166300
X46300Y166300
X36300Y166300
X26300Y166300
X26300Y136300
X36300Y136300
X46300Y136300
X56300Y136300
X66300Y136300
X200190Y139300
X210190Y139300
X210190Y129300
X200190Y129300
X200190Y119300
X210190Y119300
X210190Y109300
X200190Y109300
X200190Y149300
X210190Y149300
X210190Y159300
X200190Y159300
X200190Y169300
X210190Y169300
X210190Y179300
X200190Y179300
X200190Y189300
X210190Y189300
X210190Y199300
X200190Y199300
T04
X316261Y24922
X316261Y206024
X24922Y206024
X24922Y24922
M30
