G75*
%MOIN*%
%OFA0B0*%
%FSLAX25Y25*%
%IPPOS*%
%LPD*%
%AMOC8*
5,1,8,0,0,1.08239X$1,22.5*
%
%ADD10C,0.00300*%
%ADD11C,0.01388*%
%ADD12C,0.07400*%
%ADD13C,0.23400*%
%ADD14C,0.01171*%
%ADD15C,0.06306*%
%ADD16R,0.04337X0.04337*%
%ADD17C,0.04337*%
%ADD18R,0.03845X0.02762*%
%ADD19R,0.04140X0.01975*%
D10*
X0024922Y0001300D02*
X0316261Y0001300D01*
X0316832Y0001307D01*
X0317402Y0001328D01*
X0317972Y0001362D01*
X0318541Y0001410D01*
X0319108Y0001472D01*
X0319674Y0001548D01*
X0320238Y0001637D01*
X0320799Y0001740D01*
X0321358Y0001857D01*
X0321914Y0001986D01*
X0322467Y0002130D01*
X0323016Y0002286D01*
X0323561Y0002456D01*
X0324101Y0002639D01*
X0324637Y0002835D01*
X0325169Y0003044D01*
X0325695Y0003266D01*
X0326215Y0003500D01*
X0326730Y0003747D01*
X0327239Y0004006D01*
X0327741Y0004277D01*
X0328236Y0004561D01*
X0328725Y0004856D01*
X0329206Y0005163D01*
X0329680Y0005481D01*
X0330146Y0005811D01*
X0330603Y0006152D01*
X0331053Y0006505D01*
X0331493Y0006867D01*
X0331925Y0007241D01*
X0332348Y0007624D01*
X0332761Y0008018D01*
X0333165Y0008422D01*
X0333559Y0008835D01*
X0333942Y0009258D01*
X0334316Y0009690D01*
X0334678Y0010130D01*
X0335031Y0010580D01*
X0335372Y0011037D01*
X0335702Y0011503D01*
X0336020Y0011977D01*
X0336327Y0012458D01*
X0336622Y0012947D01*
X0336906Y0013442D01*
X0337177Y0013944D01*
X0337436Y0014453D01*
X0337683Y0014968D01*
X0337917Y0015488D01*
X0338139Y0016014D01*
X0338348Y0016546D01*
X0338544Y0017082D01*
X0338727Y0017622D01*
X0338897Y0018167D01*
X0339053Y0018716D01*
X0339197Y0019269D01*
X0339326Y0019825D01*
X0339443Y0020384D01*
X0339546Y0020945D01*
X0339635Y0021509D01*
X0339711Y0022075D01*
X0339773Y0022642D01*
X0339821Y0023211D01*
X0339855Y0023781D01*
X0339876Y0024351D01*
X0339883Y0024922D01*
X0339883Y0206024D01*
X0339876Y0206595D01*
X0339855Y0207165D01*
X0339821Y0207735D01*
X0339773Y0208304D01*
X0339711Y0208871D01*
X0339635Y0209437D01*
X0339546Y0210001D01*
X0339443Y0210562D01*
X0339326Y0211121D01*
X0339197Y0211677D01*
X0339053Y0212230D01*
X0338897Y0212779D01*
X0338727Y0213324D01*
X0338544Y0213864D01*
X0338348Y0214400D01*
X0338139Y0214932D01*
X0337917Y0215458D01*
X0337683Y0215978D01*
X0337436Y0216493D01*
X0337177Y0217002D01*
X0336906Y0217504D01*
X0336622Y0217999D01*
X0336327Y0218488D01*
X0336020Y0218969D01*
X0335702Y0219443D01*
X0335372Y0219909D01*
X0335031Y0220366D01*
X0334678Y0220816D01*
X0334316Y0221256D01*
X0333942Y0221688D01*
X0333559Y0222111D01*
X0333165Y0222524D01*
X0332761Y0222928D01*
X0332348Y0223322D01*
X0331925Y0223705D01*
X0331493Y0224079D01*
X0331053Y0224441D01*
X0330603Y0224794D01*
X0330146Y0225135D01*
X0329680Y0225465D01*
X0329206Y0225783D01*
X0328725Y0226090D01*
X0328236Y0226385D01*
X0327741Y0226669D01*
X0327239Y0226940D01*
X0326730Y0227199D01*
X0326215Y0227446D01*
X0325695Y0227680D01*
X0325169Y0227902D01*
X0324637Y0228111D01*
X0324101Y0228307D01*
X0323561Y0228490D01*
X0323016Y0228660D01*
X0322467Y0228816D01*
X0321914Y0228960D01*
X0321358Y0229089D01*
X0320799Y0229206D01*
X0320238Y0229309D01*
X0319674Y0229398D01*
X0319108Y0229474D01*
X0318541Y0229536D01*
X0317972Y0229584D01*
X0317402Y0229618D01*
X0316832Y0229639D01*
X0316261Y0229646D01*
X0024922Y0229646D01*
X0024351Y0229639D01*
X0023781Y0229618D01*
X0023211Y0229584D01*
X0022642Y0229536D01*
X0022075Y0229474D01*
X0021509Y0229398D01*
X0020945Y0229309D01*
X0020384Y0229206D01*
X0019825Y0229089D01*
X0019269Y0228960D01*
X0018716Y0228816D01*
X0018167Y0228660D01*
X0017622Y0228490D01*
X0017082Y0228307D01*
X0016546Y0228111D01*
X0016014Y0227902D01*
X0015488Y0227680D01*
X0014968Y0227446D01*
X0014453Y0227199D01*
X0013944Y0226940D01*
X0013442Y0226669D01*
X0012947Y0226385D01*
X0012458Y0226090D01*
X0011977Y0225783D01*
X0011503Y0225465D01*
X0011037Y0225135D01*
X0010580Y0224794D01*
X0010130Y0224441D01*
X0009690Y0224079D01*
X0009258Y0223705D01*
X0008835Y0223322D01*
X0008422Y0222928D01*
X0008018Y0222524D01*
X0007624Y0222111D01*
X0007241Y0221688D01*
X0006867Y0221256D01*
X0006505Y0220816D01*
X0006152Y0220366D01*
X0005811Y0219909D01*
X0005481Y0219443D01*
X0005163Y0218969D01*
X0004856Y0218488D01*
X0004561Y0217999D01*
X0004277Y0217504D01*
X0004006Y0217002D01*
X0003747Y0216493D01*
X0003500Y0215978D01*
X0003266Y0215458D01*
X0003044Y0214932D01*
X0002835Y0214400D01*
X0002639Y0213864D01*
X0002456Y0213324D01*
X0002286Y0212779D01*
X0002130Y0212230D01*
X0001986Y0211677D01*
X0001857Y0211121D01*
X0001740Y0210562D01*
X0001637Y0210001D01*
X0001548Y0209437D01*
X0001472Y0208871D01*
X0001410Y0208304D01*
X0001362Y0207735D01*
X0001328Y0207165D01*
X0001307Y0206595D01*
X0001300Y0206024D01*
X0001300Y0024922D01*
X0001307Y0024351D01*
X0001328Y0023781D01*
X0001362Y0023211D01*
X0001410Y0022642D01*
X0001472Y0022075D01*
X0001548Y0021509D01*
X0001637Y0020945D01*
X0001740Y0020384D01*
X0001857Y0019825D01*
X0001986Y0019269D01*
X0002130Y0018716D01*
X0002286Y0018167D01*
X0002456Y0017622D01*
X0002639Y0017082D01*
X0002835Y0016546D01*
X0003044Y0016014D01*
X0003266Y0015488D01*
X0003500Y0014968D01*
X0003747Y0014453D01*
X0004006Y0013944D01*
X0004277Y0013442D01*
X0004561Y0012947D01*
X0004856Y0012458D01*
X0005163Y0011977D01*
X0005481Y0011503D01*
X0005811Y0011037D01*
X0006152Y0010580D01*
X0006505Y0010130D01*
X0006867Y0009690D01*
X0007241Y0009258D01*
X0007624Y0008835D01*
X0008018Y0008422D01*
X0008422Y0008018D01*
X0008835Y0007624D01*
X0009258Y0007241D01*
X0009690Y0006867D01*
X0010130Y0006505D01*
X0010580Y0006152D01*
X0011037Y0005811D01*
X0011503Y0005481D01*
X0011977Y0005163D01*
X0012458Y0004856D01*
X0012947Y0004561D01*
X0013442Y0004277D01*
X0013944Y0004006D01*
X0014453Y0003747D01*
X0014968Y0003500D01*
X0015488Y0003266D01*
X0016014Y0003044D01*
X0016546Y0002835D01*
X0017082Y0002639D01*
X0017622Y0002456D01*
X0018167Y0002286D01*
X0018716Y0002130D01*
X0019269Y0001986D01*
X0019825Y0001857D01*
X0020384Y0001740D01*
X0020945Y0001637D01*
X0021509Y0001548D01*
X0022075Y0001472D01*
X0022642Y0001410D01*
X0023211Y0001362D01*
X0023781Y0001328D01*
X0024351Y0001307D01*
X0024922Y0001300D01*
D11*
X0022621Y0056952D02*
X0028719Y0056952D01*
X0022621Y0056952D02*
X0022621Y0059900D01*
X0028719Y0059900D01*
X0028719Y0056952D01*
X0028719Y0058271D02*
X0022621Y0058271D01*
X0022621Y0059590D02*
X0028719Y0059590D01*
X0043881Y0056952D02*
X0049979Y0056952D01*
X0043881Y0056952D02*
X0043881Y0059900D01*
X0049979Y0059900D01*
X0049979Y0056952D01*
X0049979Y0058271D02*
X0043881Y0058271D01*
X0043881Y0059590D02*
X0049979Y0059590D01*
X0059629Y0066480D02*
X0059629Y0069428D01*
X0062971Y0069428D01*
X0062971Y0066480D01*
X0059629Y0066480D01*
X0059629Y0067799D02*
X0062971Y0067799D01*
X0062971Y0069118D02*
X0059629Y0069118D01*
X0059629Y0073172D02*
X0059629Y0076120D01*
X0062971Y0076120D01*
X0062971Y0073172D01*
X0059629Y0073172D01*
X0059629Y0074491D02*
X0062971Y0074491D01*
X0062971Y0075810D02*
X0059629Y0075810D01*
X0049979Y0072700D02*
X0043881Y0072700D01*
X0043881Y0075648D01*
X0049979Y0075648D01*
X0049979Y0072700D01*
X0049979Y0074019D02*
X0043881Y0074019D01*
X0043881Y0075338D02*
X0049979Y0075338D01*
X0028719Y0072700D02*
X0022621Y0072700D01*
X0022621Y0075648D01*
X0028719Y0075648D01*
X0028719Y0072700D01*
X0028719Y0074019D02*
X0022621Y0074019D01*
X0022621Y0075338D02*
X0028719Y0075338D01*
X0076401Y0126794D02*
X0079349Y0126794D01*
X0076401Y0126794D02*
X0076401Y0130136D01*
X0079349Y0130136D01*
X0079349Y0126794D01*
X0079349Y0128113D02*
X0076401Y0128113D01*
X0076401Y0129432D02*
X0079349Y0129432D01*
X0083094Y0126794D02*
X0086042Y0126794D01*
X0083094Y0126794D02*
X0083094Y0130136D01*
X0086042Y0130136D01*
X0086042Y0126794D01*
X0086042Y0128113D02*
X0083094Y0128113D01*
X0083094Y0129432D02*
X0086042Y0129432D01*
X0086042Y0156716D02*
X0083094Y0156716D01*
X0083094Y0160058D01*
X0086042Y0160058D01*
X0086042Y0156716D01*
X0086042Y0158035D02*
X0083094Y0158035D01*
X0083094Y0159354D02*
X0086042Y0159354D01*
X0079349Y0156716D02*
X0076401Y0156716D01*
X0076401Y0160058D01*
X0079349Y0160058D01*
X0079349Y0156716D01*
X0079349Y0158035D02*
X0076401Y0158035D01*
X0076401Y0159354D02*
X0079349Y0159354D01*
D12*
X0066300Y0166300D03*
X0056300Y0166300D03*
X0046300Y0166300D03*
X0036300Y0166300D03*
X0026300Y0166300D03*
X0026300Y0136300D03*
X0036300Y0136300D03*
X0046300Y0136300D03*
X0056300Y0136300D03*
X0066300Y0136300D03*
X0066300Y0106300D03*
X0056300Y0106300D03*
X0046300Y0106300D03*
X0036300Y0106300D03*
X0026300Y0106300D03*
X0286300Y0106300D03*
X0286300Y0096300D03*
X0286300Y0086300D03*
X0286300Y0076300D03*
X0286300Y0066300D03*
X0286300Y0056300D03*
X0286300Y0046300D03*
X0286300Y0036300D03*
X0286300Y0026300D03*
X0286300Y0016300D03*
X0286300Y0126300D03*
X0286300Y0136300D03*
X0286300Y0146300D03*
X0286300Y0156300D03*
X0286300Y0166300D03*
X0286300Y0176300D03*
X0286300Y0186300D03*
X0286300Y0196300D03*
X0286300Y0206300D03*
X0286300Y0216300D03*
D13*
X0316261Y0206024D03*
X0316261Y0024922D03*
X0024922Y0024922D03*
X0024922Y0206024D03*
D14*
X0077079Y0165071D02*
X0079459Y0165071D01*
X0077079Y0165071D02*
X0077079Y0167451D01*
X0079459Y0167451D01*
X0079459Y0165071D01*
X0079459Y0166183D02*
X0077079Y0166183D01*
X0077079Y0167295D02*
X0079459Y0167295D01*
X0082984Y0165071D02*
X0085364Y0165071D01*
X0082984Y0165071D02*
X0082984Y0167451D01*
X0085364Y0167451D01*
X0085364Y0165071D01*
X0085364Y0166183D02*
X0082984Y0166183D01*
X0082984Y0167295D02*
X0085364Y0167295D01*
X0085364Y0135149D02*
X0082984Y0135149D01*
X0082984Y0137529D01*
X0085364Y0137529D01*
X0085364Y0135149D01*
X0085364Y0136261D02*
X0082984Y0136261D01*
X0082984Y0137373D02*
X0085364Y0137373D01*
X0079459Y0135149D02*
X0077079Y0135149D01*
X0077079Y0137529D01*
X0079459Y0137529D01*
X0079459Y0135149D01*
X0079459Y0136261D02*
X0077079Y0136261D01*
X0077079Y0137373D02*
X0079459Y0137373D01*
X0242157Y0137490D02*
X0244537Y0137490D01*
X0244537Y0135110D01*
X0242157Y0135110D01*
X0242157Y0137490D01*
X0242157Y0136222D02*
X0244537Y0136222D01*
X0244537Y0137334D02*
X0242157Y0137334D01*
X0248063Y0137490D02*
X0250443Y0137490D01*
X0250443Y0135110D01*
X0248063Y0135110D01*
X0248063Y0137490D01*
X0248063Y0136222D02*
X0250443Y0136222D01*
X0250443Y0137334D02*
X0248063Y0137334D01*
X0248063Y0147490D02*
X0250443Y0147490D01*
X0250443Y0145110D01*
X0248063Y0145110D01*
X0248063Y0147490D01*
X0248063Y0146222D02*
X0250443Y0146222D01*
X0250443Y0147334D02*
X0248063Y0147334D01*
X0244537Y0147490D02*
X0242157Y0147490D01*
X0244537Y0147490D02*
X0244537Y0145110D01*
X0242157Y0145110D01*
X0242157Y0147490D01*
X0242157Y0146222D02*
X0244537Y0146222D01*
X0244537Y0147334D02*
X0242157Y0147334D01*
X0242157Y0157490D02*
X0244537Y0157490D01*
X0244537Y0155110D01*
X0242157Y0155110D01*
X0242157Y0157490D01*
X0242157Y0156222D02*
X0244537Y0156222D01*
X0244537Y0157334D02*
X0242157Y0157334D01*
X0248063Y0157490D02*
X0250443Y0157490D01*
X0250443Y0155110D01*
X0248063Y0155110D01*
X0248063Y0157490D01*
X0248063Y0156222D02*
X0250443Y0156222D01*
X0250443Y0157334D02*
X0248063Y0157334D01*
X0248063Y0167490D02*
X0250443Y0167490D01*
X0250443Y0165110D01*
X0248063Y0165110D01*
X0248063Y0167490D01*
X0248063Y0166222D02*
X0250443Y0166222D01*
X0250443Y0167334D02*
X0248063Y0167334D01*
X0244537Y0167490D02*
X0242157Y0167490D01*
X0244537Y0167490D02*
X0244537Y0165110D01*
X0242157Y0165110D01*
X0242157Y0167490D01*
X0242157Y0166222D02*
X0244537Y0166222D01*
X0244537Y0167334D02*
X0242157Y0167334D01*
X0242157Y0177490D02*
X0244537Y0177490D01*
X0244537Y0175110D01*
X0242157Y0175110D01*
X0242157Y0177490D01*
X0242157Y0176222D02*
X0244537Y0176222D01*
X0244537Y0177334D02*
X0242157Y0177334D01*
X0248063Y0177490D02*
X0250443Y0177490D01*
X0250443Y0175110D01*
X0248063Y0175110D01*
X0248063Y0177490D01*
X0248063Y0176222D02*
X0250443Y0176222D01*
X0250443Y0177334D02*
X0248063Y0177334D01*
X0248063Y0187490D02*
X0250443Y0187490D01*
X0250443Y0185110D01*
X0248063Y0185110D01*
X0248063Y0187490D01*
X0248063Y0186222D02*
X0250443Y0186222D01*
X0250443Y0187334D02*
X0248063Y0187334D01*
X0244537Y0187490D02*
X0242157Y0187490D01*
X0244537Y0187490D02*
X0244537Y0185110D01*
X0242157Y0185110D01*
X0242157Y0187490D01*
X0242157Y0186222D02*
X0244537Y0186222D01*
X0244537Y0187334D02*
X0242157Y0187334D01*
X0242157Y0197490D02*
X0244537Y0197490D01*
X0244537Y0195110D01*
X0242157Y0195110D01*
X0242157Y0197490D01*
X0242157Y0196222D02*
X0244537Y0196222D01*
X0244537Y0197334D02*
X0242157Y0197334D01*
X0248063Y0197490D02*
X0250443Y0197490D01*
X0250443Y0195110D01*
X0248063Y0195110D01*
X0248063Y0197490D01*
X0248063Y0196222D02*
X0250443Y0196222D01*
X0250443Y0197334D02*
X0248063Y0197334D01*
X0248063Y0207490D02*
X0250443Y0207490D01*
X0250443Y0205110D01*
X0248063Y0205110D01*
X0248063Y0207490D01*
X0248063Y0206222D02*
X0250443Y0206222D01*
X0250443Y0207334D02*
X0248063Y0207334D01*
X0244537Y0207490D02*
X0242157Y0207490D01*
X0244537Y0207490D02*
X0244537Y0205110D01*
X0242157Y0205110D01*
X0242157Y0207490D01*
X0242157Y0206222D02*
X0244537Y0206222D01*
X0244537Y0207334D02*
X0242157Y0207334D01*
X0242157Y0217490D02*
X0244537Y0217490D01*
X0244537Y0215110D01*
X0242157Y0215110D01*
X0242157Y0217490D01*
X0242157Y0216222D02*
X0244537Y0216222D01*
X0244537Y0217334D02*
X0242157Y0217334D01*
X0248063Y0217490D02*
X0250443Y0217490D01*
X0250443Y0215110D01*
X0248063Y0215110D01*
X0248063Y0217490D01*
X0248063Y0216222D02*
X0250443Y0216222D01*
X0250443Y0217334D02*
X0248063Y0217334D01*
X0248063Y0127490D02*
X0250443Y0127490D01*
X0250443Y0125110D01*
X0248063Y0125110D01*
X0248063Y0127490D01*
X0248063Y0126222D02*
X0250443Y0126222D01*
X0250443Y0127334D02*
X0248063Y0127334D01*
X0244537Y0127490D02*
X0242157Y0127490D01*
X0244537Y0127490D02*
X0244537Y0125110D01*
X0242157Y0125110D01*
X0242157Y0127490D01*
X0242157Y0126222D02*
X0244537Y0126222D01*
X0244537Y0127334D02*
X0242157Y0127334D01*
X0242157Y0107490D02*
X0244537Y0107490D01*
X0244537Y0105110D01*
X0242157Y0105110D01*
X0242157Y0107490D01*
X0242157Y0106222D02*
X0244537Y0106222D01*
X0244537Y0107334D02*
X0242157Y0107334D01*
X0248063Y0107490D02*
X0250443Y0107490D01*
X0250443Y0105110D01*
X0248063Y0105110D01*
X0248063Y0107490D01*
X0248063Y0106222D02*
X0250443Y0106222D01*
X0250443Y0107334D02*
X0248063Y0107334D01*
X0248063Y0097490D02*
X0250443Y0097490D01*
X0250443Y0095110D01*
X0248063Y0095110D01*
X0248063Y0097490D01*
X0248063Y0096222D02*
X0250443Y0096222D01*
X0250443Y0097334D02*
X0248063Y0097334D01*
X0244537Y0097490D02*
X0242157Y0097490D01*
X0244537Y0097490D02*
X0244537Y0095110D01*
X0242157Y0095110D01*
X0242157Y0097490D01*
X0242157Y0096222D02*
X0244537Y0096222D01*
X0244537Y0097334D02*
X0242157Y0097334D01*
X0242157Y0087490D02*
X0244537Y0087490D01*
X0244537Y0085110D01*
X0242157Y0085110D01*
X0242157Y0087490D01*
X0242157Y0086222D02*
X0244537Y0086222D01*
X0244537Y0087334D02*
X0242157Y0087334D01*
X0248063Y0087490D02*
X0250443Y0087490D01*
X0250443Y0085110D01*
X0248063Y0085110D01*
X0248063Y0087490D01*
X0248063Y0086222D02*
X0250443Y0086222D01*
X0250443Y0087334D02*
X0248063Y0087334D01*
X0248063Y0077490D02*
X0250443Y0077490D01*
X0250443Y0075110D01*
X0248063Y0075110D01*
X0248063Y0077490D01*
X0248063Y0076222D02*
X0250443Y0076222D01*
X0250443Y0077334D02*
X0248063Y0077334D01*
X0244537Y0077490D02*
X0242157Y0077490D01*
X0244537Y0077490D02*
X0244537Y0075110D01*
X0242157Y0075110D01*
X0242157Y0077490D01*
X0242157Y0076222D02*
X0244537Y0076222D01*
X0244537Y0077334D02*
X0242157Y0077334D01*
X0242157Y0067490D02*
X0244537Y0067490D01*
X0244537Y0065110D01*
X0242157Y0065110D01*
X0242157Y0067490D01*
X0242157Y0066222D02*
X0244537Y0066222D01*
X0244537Y0067334D02*
X0242157Y0067334D01*
X0248063Y0067490D02*
X0250443Y0067490D01*
X0250443Y0065110D01*
X0248063Y0065110D01*
X0248063Y0067490D01*
X0248063Y0066222D02*
X0250443Y0066222D01*
X0250443Y0067334D02*
X0248063Y0067334D01*
X0248063Y0057490D02*
X0250443Y0057490D01*
X0250443Y0055110D01*
X0248063Y0055110D01*
X0248063Y0057490D01*
X0248063Y0056222D02*
X0250443Y0056222D01*
X0250443Y0057334D02*
X0248063Y0057334D01*
X0244537Y0057490D02*
X0242157Y0057490D01*
X0244537Y0057490D02*
X0244537Y0055110D01*
X0242157Y0055110D01*
X0242157Y0057490D01*
X0242157Y0056222D02*
X0244537Y0056222D01*
X0244537Y0057334D02*
X0242157Y0057334D01*
X0242157Y0047490D02*
X0244537Y0047490D01*
X0244537Y0045110D01*
X0242157Y0045110D01*
X0242157Y0047490D01*
X0242157Y0046222D02*
X0244537Y0046222D01*
X0244537Y0047334D02*
X0242157Y0047334D01*
X0248063Y0047490D02*
X0250443Y0047490D01*
X0250443Y0045110D01*
X0248063Y0045110D01*
X0248063Y0047490D01*
X0248063Y0046222D02*
X0250443Y0046222D01*
X0250443Y0047334D02*
X0248063Y0047334D01*
X0248063Y0037490D02*
X0250443Y0037490D01*
X0250443Y0035110D01*
X0248063Y0035110D01*
X0248063Y0037490D01*
X0248063Y0036222D02*
X0250443Y0036222D01*
X0250443Y0037334D02*
X0248063Y0037334D01*
X0244537Y0037490D02*
X0242157Y0037490D01*
X0244537Y0037490D02*
X0244537Y0035110D01*
X0242157Y0035110D01*
X0242157Y0037490D01*
X0242157Y0036222D02*
X0244537Y0036222D01*
X0244537Y0037334D02*
X0242157Y0037334D01*
X0242157Y0027490D02*
X0244537Y0027490D01*
X0244537Y0025110D01*
X0242157Y0025110D01*
X0242157Y0027490D01*
X0242157Y0026222D02*
X0244537Y0026222D01*
X0244537Y0027334D02*
X0242157Y0027334D01*
X0248063Y0027490D02*
X0250443Y0027490D01*
X0250443Y0025110D01*
X0248063Y0025110D01*
X0248063Y0027490D01*
X0248063Y0026222D02*
X0250443Y0026222D01*
X0250443Y0027334D02*
X0248063Y0027334D01*
X0248063Y0017490D02*
X0250443Y0017490D01*
X0250443Y0015110D01*
X0248063Y0015110D01*
X0248063Y0017490D01*
X0248063Y0016222D02*
X0250443Y0016222D01*
X0250443Y0017334D02*
X0248063Y0017334D01*
X0244537Y0017490D02*
X0242157Y0017490D01*
X0244537Y0017490D02*
X0244537Y0015110D01*
X0242157Y0015110D01*
X0242157Y0017490D01*
X0242157Y0016222D02*
X0244537Y0016222D01*
X0244537Y0017334D02*
X0242157Y0017334D01*
D15*
X0210190Y0109300D03*
X0200190Y0109300D03*
X0200190Y0119300D03*
X0210190Y0119300D03*
X0210190Y0129300D03*
X0200190Y0129300D03*
X0200190Y0139300D03*
X0210190Y0139300D03*
X0210190Y0149300D03*
X0200190Y0149300D03*
X0200190Y0159300D03*
X0210190Y0159300D03*
X0210190Y0169300D03*
X0200190Y0169300D03*
X0200190Y0179300D03*
X0210190Y0179300D03*
X0210190Y0189300D03*
X0200190Y0189300D03*
X0200190Y0199300D03*
X0210190Y0199300D03*
X0110190Y0199300D03*
X0100190Y0199300D03*
X0100190Y0189300D03*
X0110190Y0189300D03*
X0110190Y0179300D03*
X0100190Y0179300D03*
X0100190Y0169300D03*
X0110190Y0169300D03*
X0110190Y0159300D03*
X0100190Y0159300D03*
X0100190Y0149300D03*
X0110190Y0149300D03*
X0110190Y0139300D03*
X0100190Y0139300D03*
X0100190Y0129300D03*
X0110190Y0129300D03*
X0110190Y0119300D03*
X0100190Y0119300D03*
X0100190Y0109300D03*
X0110190Y0109300D03*
D16*
X0312560Y0107442D03*
D17*
X0307560Y0107442D03*
X0307560Y0112442D03*
X0312560Y0112442D03*
X0312560Y0117442D03*
X0307560Y0117442D03*
X0307560Y0122442D03*
X0312560Y0122442D03*
X0312560Y0127442D03*
X0307560Y0127442D03*
D18*
X0233934Y0121749D03*
X0227044Y0121749D03*
X0227044Y0111513D03*
X0233934Y0111513D03*
X0233934Y0075221D03*
X0227044Y0075221D03*
X0227044Y0064985D03*
X0233934Y0064985D03*
X0233871Y0042009D03*
X0226981Y0042009D03*
X0226981Y0031772D03*
X0233871Y0031772D03*
X0233934Y0155851D03*
X0227044Y0155851D03*
X0227044Y0166087D03*
X0233934Y0166087D03*
X0233745Y0196182D03*
X0226855Y0196182D03*
X0226855Y0206418D03*
X0233745Y0206418D03*
D19*
X0233745Y0202875D03*
X0233745Y0199725D03*
X0226855Y0199725D03*
X0226855Y0202875D03*
X0227044Y0162544D03*
X0227044Y0159394D03*
X0233934Y0159394D03*
X0233934Y0162544D03*
X0233934Y0118206D03*
X0233934Y0115056D03*
X0227044Y0115056D03*
X0227044Y0118206D03*
X0227044Y0071678D03*
X0227044Y0068528D03*
X0233934Y0068528D03*
X0233934Y0071678D03*
X0233871Y0038465D03*
X0233871Y0035316D03*
X0226981Y0035316D03*
X0226981Y0038465D03*
M02*
