G75*
%MOIN*%
%OFA0B0*%
%FSLAX25Y25*%
%IPPOS*%
%LPD*%
%AMOC8*
5,1,8,0,0,1.08239X$1,22.5*
%
%ADD10C,0.00300*%
%ADD11C,0.00984*%
%ADD12C,0.00787*%
%ADD13R,0.03445X0.02362*%
%ADD14R,0.03740X0.01575*%
D10*
X0024922Y0001300D02*
X0316261Y0001300D01*
X0316832Y0001307D01*
X0317402Y0001328D01*
X0317972Y0001362D01*
X0318541Y0001410D01*
X0319108Y0001472D01*
X0319674Y0001548D01*
X0320238Y0001637D01*
X0320799Y0001740D01*
X0321358Y0001857D01*
X0321914Y0001986D01*
X0322467Y0002130D01*
X0323016Y0002286D01*
X0323561Y0002456D01*
X0324101Y0002639D01*
X0324637Y0002835D01*
X0325169Y0003044D01*
X0325695Y0003266D01*
X0326215Y0003500D01*
X0326730Y0003747D01*
X0327239Y0004006D01*
X0327741Y0004277D01*
X0328236Y0004561D01*
X0328725Y0004856D01*
X0329206Y0005163D01*
X0329680Y0005481D01*
X0330146Y0005811D01*
X0330603Y0006152D01*
X0331053Y0006505D01*
X0331493Y0006867D01*
X0331925Y0007241D01*
X0332348Y0007624D01*
X0332761Y0008018D01*
X0333165Y0008422D01*
X0333559Y0008835D01*
X0333942Y0009258D01*
X0334316Y0009690D01*
X0334678Y0010130D01*
X0335031Y0010580D01*
X0335372Y0011037D01*
X0335702Y0011503D01*
X0336020Y0011977D01*
X0336327Y0012458D01*
X0336622Y0012947D01*
X0336906Y0013442D01*
X0337177Y0013944D01*
X0337436Y0014453D01*
X0337683Y0014968D01*
X0337917Y0015488D01*
X0338139Y0016014D01*
X0338348Y0016546D01*
X0338544Y0017082D01*
X0338727Y0017622D01*
X0338897Y0018167D01*
X0339053Y0018716D01*
X0339197Y0019269D01*
X0339326Y0019825D01*
X0339443Y0020384D01*
X0339546Y0020945D01*
X0339635Y0021509D01*
X0339711Y0022075D01*
X0339773Y0022642D01*
X0339821Y0023211D01*
X0339855Y0023781D01*
X0339876Y0024351D01*
X0339883Y0024922D01*
X0339883Y0206024D01*
X0339876Y0206595D01*
X0339855Y0207165D01*
X0339821Y0207735D01*
X0339773Y0208304D01*
X0339711Y0208871D01*
X0339635Y0209437D01*
X0339546Y0210001D01*
X0339443Y0210562D01*
X0339326Y0211121D01*
X0339197Y0211677D01*
X0339053Y0212230D01*
X0338897Y0212779D01*
X0338727Y0213324D01*
X0338544Y0213864D01*
X0338348Y0214400D01*
X0338139Y0214932D01*
X0337917Y0215458D01*
X0337683Y0215978D01*
X0337436Y0216493D01*
X0337177Y0217002D01*
X0336906Y0217504D01*
X0336622Y0217999D01*
X0336327Y0218488D01*
X0336020Y0218969D01*
X0335702Y0219443D01*
X0335372Y0219909D01*
X0335031Y0220366D01*
X0334678Y0220816D01*
X0334316Y0221256D01*
X0333942Y0221688D01*
X0333559Y0222111D01*
X0333165Y0222524D01*
X0332761Y0222928D01*
X0332348Y0223322D01*
X0331925Y0223705D01*
X0331493Y0224079D01*
X0331053Y0224441D01*
X0330603Y0224794D01*
X0330146Y0225135D01*
X0329680Y0225465D01*
X0329206Y0225783D01*
X0328725Y0226090D01*
X0328236Y0226385D01*
X0327741Y0226669D01*
X0327239Y0226940D01*
X0326730Y0227199D01*
X0326215Y0227446D01*
X0325695Y0227680D01*
X0325169Y0227902D01*
X0324637Y0228111D01*
X0324101Y0228307D01*
X0323561Y0228490D01*
X0323016Y0228660D01*
X0322467Y0228816D01*
X0321914Y0228960D01*
X0321358Y0229089D01*
X0320799Y0229206D01*
X0320238Y0229309D01*
X0319674Y0229398D01*
X0319108Y0229474D01*
X0318541Y0229536D01*
X0317972Y0229584D01*
X0317402Y0229618D01*
X0316832Y0229639D01*
X0316261Y0229646D01*
X0024922Y0229646D01*
X0024351Y0229639D01*
X0023781Y0229618D01*
X0023211Y0229584D01*
X0022642Y0229536D01*
X0022075Y0229474D01*
X0021509Y0229398D01*
X0020945Y0229309D01*
X0020384Y0229206D01*
X0019825Y0229089D01*
X0019269Y0228960D01*
X0018716Y0228816D01*
X0018167Y0228660D01*
X0017622Y0228490D01*
X0017082Y0228307D01*
X0016546Y0228111D01*
X0016014Y0227902D01*
X0015488Y0227680D01*
X0014968Y0227446D01*
X0014453Y0227199D01*
X0013944Y0226940D01*
X0013442Y0226669D01*
X0012947Y0226385D01*
X0012458Y0226090D01*
X0011977Y0225783D01*
X0011503Y0225465D01*
X0011037Y0225135D01*
X0010580Y0224794D01*
X0010130Y0224441D01*
X0009690Y0224079D01*
X0009258Y0223705D01*
X0008835Y0223322D01*
X0008422Y0222928D01*
X0008018Y0222524D01*
X0007624Y0222111D01*
X0007241Y0221688D01*
X0006867Y0221256D01*
X0006505Y0220816D01*
X0006152Y0220366D01*
X0005811Y0219909D01*
X0005481Y0219443D01*
X0005163Y0218969D01*
X0004856Y0218488D01*
X0004561Y0217999D01*
X0004277Y0217504D01*
X0004006Y0217002D01*
X0003747Y0216493D01*
X0003500Y0215978D01*
X0003266Y0215458D01*
X0003044Y0214932D01*
X0002835Y0214400D01*
X0002639Y0213864D01*
X0002456Y0213324D01*
X0002286Y0212779D01*
X0002130Y0212230D01*
X0001986Y0211677D01*
X0001857Y0211121D01*
X0001740Y0210562D01*
X0001637Y0210001D01*
X0001548Y0209437D01*
X0001472Y0208871D01*
X0001410Y0208304D01*
X0001362Y0207735D01*
X0001328Y0207165D01*
X0001307Y0206595D01*
X0001300Y0206024D01*
X0001300Y0024922D01*
X0001307Y0024351D01*
X0001328Y0023781D01*
X0001362Y0023211D01*
X0001410Y0022642D01*
X0001472Y0022075D01*
X0001548Y0021509D01*
X0001637Y0020945D01*
X0001740Y0020384D01*
X0001857Y0019825D01*
X0001986Y0019269D01*
X0002130Y0018716D01*
X0002286Y0018167D01*
X0002456Y0017622D01*
X0002639Y0017082D01*
X0002835Y0016546D01*
X0003044Y0016014D01*
X0003266Y0015488D01*
X0003500Y0014968D01*
X0003747Y0014453D01*
X0004006Y0013944D01*
X0004277Y0013442D01*
X0004561Y0012947D01*
X0004856Y0012458D01*
X0005163Y0011977D01*
X0005481Y0011503D01*
X0005811Y0011037D01*
X0006152Y0010580D01*
X0006505Y0010130D01*
X0006867Y0009690D01*
X0007241Y0009258D01*
X0007624Y0008835D01*
X0008018Y0008422D01*
X0008422Y0008018D01*
X0008835Y0007624D01*
X0009258Y0007241D01*
X0009690Y0006867D01*
X0010130Y0006505D01*
X0010580Y0006152D01*
X0011037Y0005811D01*
X0011503Y0005481D01*
X0011977Y0005163D01*
X0012458Y0004856D01*
X0012947Y0004561D01*
X0013442Y0004277D01*
X0013944Y0004006D01*
X0014453Y0003747D01*
X0014968Y0003500D01*
X0015488Y0003266D01*
X0016014Y0003044D01*
X0016546Y0002835D01*
X0017082Y0002639D01*
X0017622Y0002456D01*
X0018167Y0002286D01*
X0018716Y0002130D01*
X0019269Y0001986D01*
X0019825Y0001857D01*
X0020384Y0001740D01*
X0020945Y0001637D01*
X0021509Y0001548D01*
X0022075Y0001472D01*
X0022642Y0001410D01*
X0023211Y0001362D01*
X0023781Y0001328D01*
X0024351Y0001307D01*
X0024922Y0001300D01*
D11*
X0022619Y0056950D02*
X0028721Y0056950D01*
X0022619Y0056950D02*
X0022619Y0059902D01*
X0028721Y0059902D01*
X0028721Y0056950D01*
X0028721Y0057885D02*
X0022619Y0057885D01*
X0022619Y0058820D02*
X0028721Y0058820D01*
X0028721Y0059755D02*
X0022619Y0059755D01*
X0022619Y0072698D02*
X0028721Y0072698D01*
X0022619Y0072698D02*
X0022619Y0075650D01*
X0028721Y0075650D01*
X0028721Y0072698D01*
X0028721Y0073633D02*
X0022619Y0073633D01*
X0022619Y0074568D02*
X0028721Y0074568D01*
X0028721Y0075503D02*
X0022619Y0075503D01*
X0043879Y0072698D02*
X0049981Y0072698D01*
X0043879Y0072698D02*
X0043879Y0075650D01*
X0049981Y0075650D01*
X0049981Y0072698D01*
X0049981Y0073633D02*
X0043879Y0073633D01*
X0043879Y0074568D02*
X0049981Y0074568D01*
X0049981Y0075503D02*
X0043879Y0075503D01*
X0059627Y0076122D02*
X0059627Y0073170D01*
X0059627Y0076122D02*
X0062973Y0076122D01*
X0062973Y0073170D01*
X0059627Y0073170D01*
X0059627Y0074105D02*
X0062973Y0074105D01*
X0062973Y0075040D02*
X0059627Y0075040D01*
X0059627Y0075975D02*
X0062973Y0075975D01*
X0059627Y0069430D02*
X0059627Y0066478D01*
X0059627Y0069430D02*
X0062973Y0069430D01*
X0062973Y0066478D01*
X0059627Y0066478D01*
X0059627Y0067413D02*
X0062973Y0067413D01*
X0062973Y0068348D02*
X0059627Y0068348D01*
X0059627Y0069283D02*
X0062973Y0069283D01*
X0049981Y0056950D02*
X0043879Y0056950D01*
X0043879Y0059902D01*
X0049981Y0059902D01*
X0049981Y0056950D01*
X0049981Y0057885D02*
X0043879Y0057885D01*
X0043879Y0058820D02*
X0049981Y0058820D01*
X0049981Y0059755D02*
X0043879Y0059755D01*
X0076399Y0126792D02*
X0079351Y0126792D01*
X0076399Y0126792D02*
X0076399Y0130138D01*
X0079351Y0130138D01*
X0079351Y0126792D01*
X0079351Y0127727D02*
X0076399Y0127727D01*
X0076399Y0128662D02*
X0079351Y0128662D01*
X0079351Y0129597D02*
X0076399Y0129597D01*
X0083092Y0126792D02*
X0086044Y0126792D01*
X0083092Y0126792D02*
X0083092Y0130138D01*
X0086044Y0130138D01*
X0086044Y0126792D01*
X0086044Y0127727D02*
X0083092Y0127727D01*
X0083092Y0128662D02*
X0086044Y0128662D01*
X0086044Y0129597D02*
X0083092Y0129597D01*
X0083092Y0156714D02*
X0086044Y0156714D01*
X0083092Y0156714D02*
X0083092Y0160060D01*
X0086044Y0160060D01*
X0086044Y0156714D01*
X0086044Y0157649D02*
X0083092Y0157649D01*
X0083092Y0158584D02*
X0086044Y0158584D01*
X0086044Y0159519D02*
X0083092Y0159519D01*
X0079351Y0156714D02*
X0076399Y0156714D01*
X0076399Y0160060D01*
X0079351Y0160060D01*
X0079351Y0156714D01*
X0079351Y0157649D02*
X0076399Y0157649D01*
X0076399Y0158584D02*
X0079351Y0158584D01*
X0079351Y0159519D02*
X0076399Y0159519D01*
D12*
X0077087Y0165079D02*
X0079451Y0165079D01*
X0077087Y0165079D02*
X0077087Y0167443D01*
X0079451Y0167443D01*
X0079451Y0165079D01*
X0079451Y0165827D02*
X0077087Y0165827D01*
X0077087Y0166575D02*
X0079451Y0166575D01*
X0079451Y0167323D02*
X0077087Y0167323D01*
X0082992Y0165079D02*
X0085356Y0165079D01*
X0082992Y0165079D02*
X0082992Y0167443D01*
X0085356Y0167443D01*
X0085356Y0165079D01*
X0085356Y0165827D02*
X0082992Y0165827D01*
X0082992Y0166575D02*
X0085356Y0166575D01*
X0085356Y0167323D02*
X0082992Y0167323D01*
X0082992Y0135157D02*
X0085356Y0135157D01*
X0082992Y0135157D02*
X0082992Y0137521D01*
X0085356Y0137521D01*
X0085356Y0135157D01*
X0085356Y0135905D02*
X0082992Y0135905D01*
X0082992Y0136653D02*
X0085356Y0136653D01*
X0085356Y0137401D02*
X0082992Y0137401D01*
X0079451Y0135157D02*
X0077087Y0135157D01*
X0077087Y0137521D01*
X0079451Y0137521D01*
X0079451Y0135157D01*
X0079451Y0135905D02*
X0077087Y0135905D01*
X0077087Y0136653D02*
X0079451Y0136653D01*
X0079451Y0137401D02*
X0077087Y0137401D01*
X0242165Y0137482D02*
X0244529Y0137482D01*
X0244529Y0135118D01*
X0242165Y0135118D01*
X0242165Y0137482D01*
X0242165Y0135866D02*
X0244529Y0135866D01*
X0244529Y0136614D02*
X0242165Y0136614D01*
X0242165Y0137362D02*
X0244529Y0137362D01*
X0248071Y0137482D02*
X0250435Y0137482D01*
X0250435Y0135118D01*
X0248071Y0135118D01*
X0248071Y0137482D01*
X0248071Y0135866D02*
X0250435Y0135866D01*
X0250435Y0136614D02*
X0248071Y0136614D01*
X0248071Y0137362D02*
X0250435Y0137362D01*
X0250435Y0147482D02*
X0248071Y0147482D01*
X0250435Y0147482D02*
X0250435Y0145118D01*
X0248071Y0145118D01*
X0248071Y0147482D01*
X0248071Y0145866D02*
X0250435Y0145866D01*
X0250435Y0146614D02*
X0248071Y0146614D01*
X0248071Y0147362D02*
X0250435Y0147362D01*
X0244529Y0147482D02*
X0242165Y0147482D01*
X0244529Y0147482D02*
X0244529Y0145118D01*
X0242165Y0145118D01*
X0242165Y0147482D01*
X0242165Y0145866D02*
X0244529Y0145866D01*
X0244529Y0146614D02*
X0242165Y0146614D01*
X0242165Y0147362D02*
X0244529Y0147362D01*
X0244529Y0157482D02*
X0242165Y0157482D01*
X0244529Y0157482D02*
X0244529Y0155118D01*
X0242165Y0155118D01*
X0242165Y0157482D01*
X0242165Y0155866D02*
X0244529Y0155866D01*
X0244529Y0156614D02*
X0242165Y0156614D01*
X0242165Y0157362D02*
X0244529Y0157362D01*
X0248071Y0157482D02*
X0250435Y0157482D01*
X0250435Y0155118D01*
X0248071Y0155118D01*
X0248071Y0157482D01*
X0248071Y0155866D02*
X0250435Y0155866D01*
X0250435Y0156614D02*
X0248071Y0156614D01*
X0248071Y0157362D02*
X0250435Y0157362D01*
X0250435Y0167482D02*
X0248071Y0167482D01*
X0250435Y0167482D02*
X0250435Y0165118D01*
X0248071Y0165118D01*
X0248071Y0167482D01*
X0248071Y0165866D02*
X0250435Y0165866D01*
X0250435Y0166614D02*
X0248071Y0166614D01*
X0248071Y0167362D02*
X0250435Y0167362D01*
X0244529Y0167482D02*
X0242165Y0167482D01*
X0244529Y0167482D02*
X0244529Y0165118D01*
X0242165Y0165118D01*
X0242165Y0167482D01*
X0242165Y0165866D02*
X0244529Y0165866D01*
X0244529Y0166614D02*
X0242165Y0166614D01*
X0242165Y0167362D02*
X0244529Y0167362D01*
X0244529Y0177482D02*
X0242165Y0177482D01*
X0244529Y0177482D02*
X0244529Y0175118D01*
X0242165Y0175118D01*
X0242165Y0177482D01*
X0242165Y0175866D02*
X0244529Y0175866D01*
X0244529Y0176614D02*
X0242165Y0176614D01*
X0242165Y0177362D02*
X0244529Y0177362D01*
X0248071Y0177482D02*
X0250435Y0177482D01*
X0250435Y0175118D01*
X0248071Y0175118D01*
X0248071Y0177482D01*
X0248071Y0175866D02*
X0250435Y0175866D01*
X0250435Y0176614D02*
X0248071Y0176614D01*
X0248071Y0177362D02*
X0250435Y0177362D01*
X0250435Y0187482D02*
X0248071Y0187482D01*
X0250435Y0187482D02*
X0250435Y0185118D01*
X0248071Y0185118D01*
X0248071Y0187482D01*
X0248071Y0185866D02*
X0250435Y0185866D01*
X0250435Y0186614D02*
X0248071Y0186614D01*
X0248071Y0187362D02*
X0250435Y0187362D01*
X0244529Y0187482D02*
X0242165Y0187482D01*
X0244529Y0187482D02*
X0244529Y0185118D01*
X0242165Y0185118D01*
X0242165Y0187482D01*
X0242165Y0185866D02*
X0244529Y0185866D01*
X0244529Y0186614D02*
X0242165Y0186614D01*
X0242165Y0187362D02*
X0244529Y0187362D01*
X0244529Y0197482D02*
X0242165Y0197482D01*
X0244529Y0197482D02*
X0244529Y0195118D01*
X0242165Y0195118D01*
X0242165Y0197482D01*
X0242165Y0195866D02*
X0244529Y0195866D01*
X0244529Y0196614D02*
X0242165Y0196614D01*
X0242165Y0197362D02*
X0244529Y0197362D01*
X0248071Y0197482D02*
X0250435Y0197482D01*
X0250435Y0195118D01*
X0248071Y0195118D01*
X0248071Y0197482D01*
X0248071Y0195866D02*
X0250435Y0195866D01*
X0250435Y0196614D02*
X0248071Y0196614D01*
X0248071Y0197362D02*
X0250435Y0197362D01*
X0250435Y0207482D02*
X0248071Y0207482D01*
X0250435Y0207482D02*
X0250435Y0205118D01*
X0248071Y0205118D01*
X0248071Y0207482D01*
X0248071Y0205866D02*
X0250435Y0205866D01*
X0250435Y0206614D02*
X0248071Y0206614D01*
X0248071Y0207362D02*
X0250435Y0207362D01*
X0244529Y0207482D02*
X0242165Y0207482D01*
X0244529Y0207482D02*
X0244529Y0205118D01*
X0242165Y0205118D01*
X0242165Y0207482D01*
X0242165Y0205866D02*
X0244529Y0205866D01*
X0244529Y0206614D02*
X0242165Y0206614D01*
X0242165Y0207362D02*
X0244529Y0207362D01*
X0244529Y0217482D02*
X0242165Y0217482D01*
X0244529Y0217482D02*
X0244529Y0215118D01*
X0242165Y0215118D01*
X0242165Y0217482D01*
X0242165Y0215866D02*
X0244529Y0215866D01*
X0244529Y0216614D02*
X0242165Y0216614D01*
X0242165Y0217362D02*
X0244529Y0217362D01*
X0248071Y0217482D02*
X0250435Y0217482D01*
X0250435Y0215118D01*
X0248071Y0215118D01*
X0248071Y0217482D01*
X0248071Y0215866D02*
X0250435Y0215866D01*
X0250435Y0216614D02*
X0248071Y0216614D01*
X0248071Y0217362D02*
X0250435Y0217362D01*
X0250435Y0127482D02*
X0248071Y0127482D01*
X0250435Y0127482D02*
X0250435Y0125118D01*
X0248071Y0125118D01*
X0248071Y0127482D01*
X0248071Y0125866D02*
X0250435Y0125866D01*
X0250435Y0126614D02*
X0248071Y0126614D01*
X0248071Y0127362D02*
X0250435Y0127362D01*
X0244529Y0127482D02*
X0242165Y0127482D01*
X0244529Y0127482D02*
X0244529Y0125118D01*
X0242165Y0125118D01*
X0242165Y0127482D01*
X0242165Y0125866D02*
X0244529Y0125866D01*
X0244529Y0126614D02*
X0242165Y0126614D01*
X0242165Y0127362D02*
X0244529Y0127362D01*
X0244529Y0107482D02*
X0242165Y0107482D01*
X0244529Y0107482D02*
X0244529Y0105118D01*
X0242165Y0105118D01*
X0242165Y0107482D01*
X0242165Y0105866D02*
X0244529Y0105866D01*
X0244529Y0106614D02*
X0242165Y0106614D01*
X0242165Y0107362D02*
X0244529Y0107362D01*
X0248071Y0107482D02*
X0250435Y0107482D01*
X0250435Y0105118D01*
X0248071Y0105118D01*
X0248071Y0107482D01*
X0248071Y0105866D02*
X0250435Y0105866D01*
X0250435Y0106614D02*
X0248071Y0106614D01*
X0248071Y0107362D02*
X0250435Y0107362D01*
X0250435Y0097482D02*
X0248071Y0097482D01*
X0250435Y0097482D02*
X0250435Y0095118D01*
X0248071Y0095118D01*
X0248071Y0097482D01*
X0248071Y0095866D02*
X0250435Y0095866D01*
X0250435Y0096614D02*
X0248071Y0096614D01*
X0248071Y0097362D02*
X0250435Y0097362D01*
X0244529Y0097482D02*
X0242165Y0097482D01*
X0244529Y0097482D02*
X0244529Y0095118D01*
X0242165Y0095118D01*
X0242165Y0097482D01*
X0242165Y0095866D02*
X0244529Y0095866D01*
X0244529Y0096614D02*
X0242165Y0096614D01*
X0242165Y0097362D02*
X0244529Y0097362D01*
X0244529Y0087482D02*
X0242165Y0087482D01*
X0244529Y0087482D02*
X0244529Y0085118D01*
X0242165Y0085118D01*
X0242165Y0087482D01*
X0242165Y0085866D02*
X0244529Y0085866D01*
X0244529Y0086614D02*
X0242165Y0086614D01*
X0242165Y0087362D02*
X0244529Y0087362D01*
X0248071Y0087482D02*
X0250435Y0087482D01*
X0250435Y0085118D01*
X0248071Y0085118D01*
X0248071Y0087482D01*
X0248071Y0085866D02*
X0250435Y0085866D01*
X0250435Y0086614D02*
X0248071Y0086614D01*
X0248071Y0087362D02*
X0250435Y0087362D01*
X0250435Y0077482D02*
X0248071Y0077482D01*
X0250435Y0077482D02*
X0250435Y0075118D01*
X0248071Y0075118D01*
X0248071Y0077482D01*
X0248071Y0075866D02*
X0250435Y0075866D01*
X0250435Y0076614D02*
X0248071Y0076614D01*
X0248071Y0077362D02*
X0250435Y0077362D01*
X0244529Y0077482D02*
X0242165Y0077482D01*
X0244529Y0077482D02*
X0244529Y0075118D01*
X0242165Y0075118D01*
X0242165Y0077482D01*
X0242165Y0075866D02*
X0244529Y0075866D01*
X0244529Y0076614D02*
X0242165Y0076614D01*
X0242165Y0077362D02*
X0244529Y0077362D01*
X0244529Y0067482D02*
X0242165Y0067482D01*
X0244529Y0067482D02*
X0244529Y0065118D01*
X0242165Y0065118D01*
X0242165Y0067482D01*
X0242165Y0065866D02*
X0244529Y0065866D01*
X0244529Y0066614D02*
X0242165Y0066614D01*
X0242165Y0067362D02*
X0244529Y0067362D01*
X0248071Y0067482D02*
X0250435Y0067482D01*
X0250435Y0065118D01*
X0248071Y0065118D01*
X0248071Y0067482D01*
X0248071Y0065866D02*
X0250435Y0065866D01*
X0250435Y0066614D02*
X0248071Y0066614D01*
X0248071Y0067362D02*
X0250435Y0067362D01*
X0250435Y0057482D02*
X0248071Y0057482D01*
X0250435Y0057482D02*
X0250435Y0055118D01*
X0248071Y0055118D01*
X0248071Y0057482D01*
X0248071Y0055866D02*
X0250435Y0055866D01*
X0250435Y0056614D02*
X0248071Y0056614D01*
X0248071Y0057362D02*
X0250435Y0057362D01*
X0244529Y0057482D02*
X0242165Y0057482D01*
X0244529Y0057482D02*
X0244529Y0055118D01*
X0242165Y0055118D01*
X0242165Y0057482D01*
X0242165Y0055866D02*
X0244529Y0055866D01*
X0244529Y0056614D02*
X0242165Y0056614D01*
X0242165Y0057362D02*
X0244529Y0057362D01*
X0244529Y0047482D02*
X0242165Y0047482D01*
X0244529Y0047482D02*
X0244529Y0045118D01*
X0242165Y0045118D01*
X0242165Y0047482D01*
X0242165Y0045866D02*
X0244529Y0045866D01*
X0244529Y0046614D02*
X0242165Y0046614D01*
X0242165Y0047362D02*
X0244529Y0047362D01*
X0248071Y0047482D02*
X0250435Y0047482D01*
X0250435Y0045118D01*
X0248071Y0045118D01*
X0248071Y0047482D01*
X0248071Y0045866D02*
X0250435Y0045866D01*
X0250435Y0046614D02*
X0248071Y0046614D01*
X0248071Y0047362D02*
X0250435Y0047362D01*
X0250435Y0037482D02*
X0248071Y0037482D01*
X0250435Y0037482D02*
X0250435Y0035118D01*
X0248071Y0035118D01*
X0248071Y0037482D01*
X0248071Y0035866D02*
X0250435Y0035866D01*
X0250435Y0036614D02*
X0248071Y0036614D01*
X0248071Y0037362D02*
X0250435Y0037362D01*
X0244529Y0037482D02*
X0242165Y0037482D01*
X0244529Y0037482D02*
X0244529Y0035118D01*
X0242165Y0035118D01*
X0242165Y0037482D01*
X0242165Y0035866D02*
X0244529Y0035866D01*
X0244529Y0036614D02*
X0242165Y0036614D01*
X0242165Y0037362D02*
X0244529Y0037362D01*
X0244529Y0027482D02*
X0242165Y0027482D01*
X0244529Y0027482D02*
X0244529Y0025118D01*
X0242165Y0025118D01*
X0242165Y0027482D01*
X0242165Y0025866D02*
X0244529Y0025866D01*
X0244529Y0026614D02*
X0242165Y0026614D01*
X0242165Y0027362D02*
X0244529Y0027362D01*
X0248071Y0027482D02*
X0250435Y0027482D01*
X0250435Y0025118D01*
X0248071Y0025118D01*
X0248071Y0027482D01*
X0248071Y0025866D02*
X0250435Y0025866D01*
X0250435Y0026614D02*
X0248071Y0026614D01*
X0248071Y0027362D02*
X0250435Y0027362D01*
X0250435Y0017482D02*
X0248071Y0017482D01*
X0250435Y0017482D02*
X0250435Y0015118D01*
X0248071Y0015118D01*
X0248071Y0017482D01*
X0248071Y0015866D02*
X0250435Y0015866D01*
X0250435Y0016614D02*
X0248071Y0016614D01*
X0248071Y0017362D02*
X0250435Y0017362D01*
X0244529Y0017482D02*
X0242165Y0017482D01*
X0244529Y0017482D02*
X0244529Y0015118D01*
X0242165Y0015118D01*
X0242165Y0017482D01*
X0242165Y0015866D02*
X0244529Y0015866D01*
X0244529Y0016614D02*
X0242165Y0016614D01*
X0242165Y0017362D02*
X0244529Y0017362D01*
D13*
X0233871Y0031772D03*
X0226981Y0031772D03*
X0226981Y0042009D03*
X0233871Y0042009D03*
X0233934Y0064985D03*
X0227044Y0064985D03*
X0227044Y0075221D03*
X0233934Y0075221D03*
X0233934Y0111513D03*
X0227044Y0111513D03*
X0227044Y0121749D03*
X0233934Y0121749D03*
X0233934Y0155851D03*
X0227044Y0155851D03*
X0227044Y0166087D03*
X0233934Y0166087D03*
X0233745Y0196182D03*
X0226855Y0196182D03*
X0226855Y0206418D03*
X0233745Y0206418D03*
D14*
X0233745Y0202875D03*
X0233745Y0199725D03*
X0226855Y0199725D03*
X0226855Y0202875D03*
X0227044Y0162544D03*
X0227044Y0159394D03*
X0233934Y0159394D03*
X0233934Y0162544D03*
X0233934Y0118206D03*
X0233934Y0115056D03*
X0227044Y0115056D03*
X0227044Y0118206D03*
X0227044Y0071678D03*
X0227044Y0068528D03*
X0233934Y0068528D03*
X0233934Y0071678D03*
X0233871Y0038465D03*
X0233871Y0035316D03*
X0226981Y0035316D03*
X0226981Y0038465D03*
M02*
