%
M48
M72
T01C0.01378
T02C0.03937
T03C0.12598
%
T01
X243426Y64292
X247363Y74135
T02
X271300Y61300
X271300Y71300
X271300Y81300
X271300Y91300
X271300Y101300
X271300Y111300
X271300Y121300
X271300Y131300
X271300Y141300
X271300Y151300
X271300Y161300
X271300Y171300
X196300Y171300
X196300Y161300
X196300Y151300
X196300Y141300
X196300Y131300
X196300Y121300
X196300Y181300
X196300Y191300
X106300Y191300
X106300Y181300
X106300Y171300
X106300Y161300
X106300Y151300
X106300Y141300
X106300Y131300
X106300Y121300
X66300Y106300
X56300Y106300
X46300Y106300
X36300Y106300
X26300Y106300
X26300Y136300
X36300Y136300
X46300Y136300
X56300Y136300
X66300Y136300
X66300Y166300
X56300Y166300
X46300Y166300
X36300Y166300
X26300Y166300
T03
X276300Y26300
X276300Y206300
X26300Y206300
X26300Y26300
M30
