G75*
%MOIN*%
%OFA0B0*%
%FSLAX25Y25*%
%IPPOS*%
%LPD*%
%AMOC8*
5,1,8,0,0,1.08239X$1,22.5*
%
%ADD10C,0.00000*%
D10*
X0026300Y0001300D02*
X0276300Y0001300D01*
X0276904Y0001307D01*
X0277508Y0001329D01*
X0278111Y0001366D01*
X0278713Y0001417D01*
X0279313Y0001482D01*
X0279912Y0001562D01*
X0280509Y0001657D01*
X0281103Y0001766D01*
X0281695Y0001889D01*
X0282283Y0002026D01*
X0282868Y0002178D01*
X0283449Y0002344D01*
X0284025Y0002524D01*
X0284598Y0002717D01*
X0285165Y0002925D01*
X0285727Y0003146D01*
X0286284Y0003380D01*
X0286835Y0003628D01*
X0287380Y0003889D01*
X0287918Y0004164D01*
X0288450Y0004451D01*
X0288974Y0004751D01*
X0289491Y0005063D01*
X0290000Y0005388D01*
X0290502Y0005725D01*
X0290995Y0006075D01*
X0291479Y0006436D01*
X0291955Y0006808D01*
X0292421Y0007192D01*
X0292878Y0007587D01*
X0293325Y0007993D01*
X0293763Y0008410D01*
X0294190Y0008837D01*
X0294607Y0009275D01*
X0295013Y0009722D01*
X0295408Y0010179D01*
X0295792Y0010645D01*
X0296164Y0011121D01*
X0296525Y0011605D01*
X0296875Y0012098D01*
X0297212Y0012600D01*
X0297537Y0013109D01*
X0297849Y0013626D01*
X0298149Y0014150D01*
X0298436Y0014682D01*
X0298711Y0015220D01*
X0298972Y0015765D01*
X0299220Y0016316D01*
X0299454Y0016873D01*
X0299675Y0017435D01*
X0299883Y0018002D01*
X0300076Y0018575D01*
X0300256Y0019151D01*
X0300422Y0019732D01*
X0300574Y0020317D01*
X0300711Y0020905D01*
X0300834Y0021497D01*
X0300943Y0022091D01*
X0301038Y0022688D01*
X0301118Y0023287D01*
X0301183Y0023887D01*
X0301234Y0024489D01*
X0301271Y0025092D01*
X0301293Y0025696D01*
X0301300Y0026300D01*
X0301300Y0206300D01*
X0301293Y0206904D01*
X0301271Y0207508D01*
X0301234Y0208111D01*
X0301183Y0208713D01*
X0301118Y0209313D01*
X0301038Y0209912D01*
X0300943Y0210509D01*
X0300834Y0211103D01*
X0300711Y0211695D01*
X0300574Y0212283D01*
X0300422Y0212868D01*
X0300256Y0213449D01*
X0300076Y0214025D01*
X0299883Y0214598D01*
X0299675Y0215165D01*
X0299454Y0215727D01*
X0299220Y0216284D01*
X0298972Y0216835D01*
X0298711Y0217380D01*
X0298436Y0217918D01*
X0298149Y0218450D01*
X0297849Y0218974D01*
X0297537Y0219491D01*
X0297212Y0220000D01*
X0296875Y0220502D01*
X0296525Y0220995D01*
X0296164Y0221479D01*
X0295792Y0221955D01*
X0295408Y0222421D01*
X0295013Y0222878D01*
X0294607Y0223325D01*
X0294190Y0223763D01*
X0293763Y0224190D01*
X0293325Y0224607D01*
X0292878Y0225013D01*
X0292421Y0225408D01*
X0291955Y0225792D01*
X0291479Y0226164D01*
X0290995Y0226525D01*
X0290502Y0226875D01*
X0290000Y0227212D01*
X0289491Y0227537D01*
X0288974Y0227849D01*
X0288450Y0228149D01*
X0287918Y0228436D01*
X0287380Y0228711D01*
X0286835Y0228972D01*
X0286284Y0229220D01*
X0285727Y0229454D01*
X0285165Y0229675D01*
X0284598Y0229883D01*
X0284025Y0230076D01*
X0283449Y0230256D01*
X0282868Y0230422D01*
X0282283Y0230574D01*
X0281695Y0230711D01*
X0281103Y0230834D01*
X0280509Y0230943D01*
X0279912Y0231038D01*
X0279313Y0231118D01*
X0278713Y0231183D01*
X0278111Y0231234D01*
X0277508Y0231271D01*
X0276904Y0231293D01*
X0276300Y0231300D01*
X0026300Y0231300D01*
X0025696Y0231293D01*
X0025092Y0231271D01*
X0024489Y0231234D01*
X0023887Y0231183D01*
X0023287Y0231118D01*
X0022688Y0231038D01*
X0022091Y0230943D01*
X0021497Y0230834D01*
X0020905Y0230711D01*
X0020317Y0230574D01*
X0019732Y0230422D01*
X0019151Y0230256D01*
X0018575Y0230076D01*
X0018002Y0229883D01*
X0017435Y0229675D01*
X0016873Y0229454D01*
X0016316Y0229220D01*
X0015765Y0228972D01*
X0015220Y0228711D01*
X0014682Y0228436D01*
X0014150Y0228149D01*
X0013626Y0227849D01*
X0013109Y0227537D01*
X0012600Y0227212D01*
X0012098Y0226875D01*
X0011605Y0226525D01*
X0011121Y0226164D01*
X0010645Y0225792D01*
X0010179Y0225408D01*
X0009722Y0225013D01*
X0009275Y0224607D01*
X0008837Y0224190D01*
X0008410Y0223763D01*
X0007993Y0223325D01*
X0007587Y0222878D01*
X0007192Y0222421D01*
X0006808Y0221955D01*
X0006436Y0221479D01*
X0006075Y0220995D01*
X0005725Y0220502D01*
X0005388Y0220000D01*
X0005063Y0219491D01*
X0004751Y0218974D01*
X0004451Y0218450D01*
X0004164Y0217918D01*
X0003889Y0217380D01*
X0003628Y0216835D01*
X0003380Y0216284D01*
X0003146Y0215727D01*
X0002925Y0215165D01*
X0002717Y0214598D01*
X0002524Y0214025D01*
X0002344Y0213449D01*
X0002178Y0212868D01*
X0002026Y0212283D01*
X0001889Y0211695D01*
X0001766Y0211103D01*
X0001657Y0210509D01*
X0001562Y0209912D01*
X0001482Y0209313D01*
X0001417Y0208713D01*
X0001366Y0208111D01*
X0001329Y0207508D01*
X0001307Y0206904D01*
X0001300Y0206300D01*
X0001300Y0026300D01*
X0001307Y0025696D01*
X0001329Y0025092D01*
X0001366Y0024489D01*
X0001417Y0023887D01*
X0001482Y0023287D01*
X0001562Y0022688D01*
X0001657Y0022091D01*
X0001766Y0021497D01*
X0001889Y0020905D01*
X0002026Y0020317D01*
X0002178Y0019732D01*
X0002344Y0019151D01*
X0002524Y0018575D01*
X0002717Y0018002D01*
X0002925Y0017435D01*
X0003146Y0016873D01*
X0003380Y0016316D01*
X0003628Y0015765D01*
X0003889Y0015220D01*
X0004164Y0014682D01*
X0004451Y0014150D01*
X0004751Y0013626D01*
X0005063Y0013109D01*
X0005388Y0012600D01*
X0005725Y0012098D01*
X0006075Y0011605D01*
X0006436Y0011121D01*
X0006808Y0010645D01*
X0007192Y0010179D01*
X0007587Y0009722D01*
X0007993Y0009275D01*
X0008410Y0008837D01*
X0008837Y0008410D01*
X0009275Y0007993D01*
X0009722Y0007587D01*
X0010179Y0007192D01*
X0010645Y0006808D01*
X0011121Y0006436D01*
X0011605Y0006075D01*
X0012098Y0005725D01*
X0012600Y0005388D01*
X0013109Y0005063D01*
X0013626Y0004751D01*
X0014150Y0004451D01*
X0014682Y0004164D01*
X0015220Y0003889D01*
X0015765Y0003628D01*
X0016316Y0003380D01*
X0016873Y0003146D01*
X0017435Y0002925D01*
X0018002Y0002717D01*
X0018575Y0002524D01*
X0019151Y0002344D01*
X0019732Y0002178D01*
X0020317Y0002026D01*
X0020905Y0001889D01*
X0021497Y0001766D01*
X0022091Y0001657D01*
X0022688Y0001562D01*
X0023287Y0001482D01*
X0023887Y0001417D01*
X0024489Y0001366D01*
X0025092Y0001329D01*
X0025696Y0001307D01*
X0026300Y0001300D01*
M02*
